<?xml version="1.0" encoding="UTF-8"?>
<svg id="Layer_2" data-name="Layer 2" xmlns="http://www.w3.org/2000/svg" viewBox="0 0 144 144">
  <defs>
    <style>
      .cls-1 {
        fill: #666;
        stroke-width: 0px;
      }
    </style>
  </defs>
  <g id="Layer_1-2" data-name="Layer 1-2">
    <g>
      <path class="cls-1" d="m125.06,23.39l-44.38,120.37c35.67-4.3,63.32-34.71,63.32-71.61,0-18.8-7.18-35.92-18.94-48.76h0Z"/>
      <path class="cls-1" d="m72,0C32.24,0,0,32.3,0,72.15c0,37.7,28.87,68.64,65.66,71.85L113.81,13.43C102.02,4.98,87.59,0,72,0Zm-1.48,54.4c-7.09.11-17.99,6.85-17.99,20.31v33.65h-17.11V39.23h16.13l.98,10.1c2.94-6.87,9.54-11.5,18.79-11.5,2.38,0,8.25.53,12.7,2.76l-5.68,15.59s-3.56-1.85-7.81-1.78h0Z"/>
    </g>
  </g>
</svg>