<?xml version="1.0" encoding="UTF-8"?>
<svg id="Layer_2" data-name="Layer 2" xmlns="http://www.w3.org/2000/svg" viewBox="0 0 144 144">
  <defs>
    <style>
      .cls-1 {
        fill: #666;
      }

      .cls-1, .cls-2 {
        stroke-width: 0px;
      }

      .cls-2 {
        fill: #fff;
      }
    </style>
  </defs>
  <circle class="cls-1" cx="72" cy="72" r="72"/>
  <path class="cls-2" d="m120.02,72c-.21-5.8-5.08-10.33-10.9-10.13-2.58.09-5.03,1.15-6.89,2.92-8.2-5.58-17.83-8.64-27.72-8.86l4.67-22.46,15.41,3.24c.43,3.96,3.97,6.82,7.93,6.39,3.96-.43,6.82-3.97,6.39-7.93s-3.97-6.82-7.93-6.39c-2.27.23-4.31,1.56-5.44,3.53l-17.65-3.53c-1.2-.27-2.4.48-2.67,1.7v.04l-5.32,24.98c-10.02.16-19.78,3.24-28.08,8.86-4.22-3.97-10.88-3.78-14.85.47-3.97,4.22-3.78,10.88.47,14.85.82.77,1.77,1.43,2.83,1.9-.07,1.06-.07,2.11,0,3.17,0,16.13,18.79,29.24,41.97,29.24s41.97-13.1,41.97-29.24c.07-1.06.07-2.11,0-3.17,3.62-1.81,5.89-5.53,5.82-9.57h0Z"/>
</svg>